<?xml version="1.0" encoding="utf-8" standalone="no"?>
<!DOCTYPE svg PUBLIC "-//W3C//DTD SVG 1.1//EN"
  "http://www.w3.org/Graphics/SVG/1.1/DTD/svg11.dtd">
<!-- Created with matplotlib (https://matplotlib.org/) -->
<svg height="363.5pt" version="1.1" viewBox="0 0 226.166667 363.5" width="226.166667pt" xmlns="http://www.w3.org/2000/svg" xmlns:xlink="http://www.w3.org/1999/xlink">
 <metadata>
  <rdf:RDF xmlns:cc="http://creativecommons.org/ns#" xmlns:dc="http://purl.org/dc/elements/1.1/" xmlns:rdf="http://www.w3.org/1999/02/22-rdf-syntax-ns#">
   <cc:Work>
    <dc:type rdf:resource="http://purl.org/dc/dcmitype/StillImage"/>
    <dc:date>2021-03-15T10:45:04.920972</dc:date>
    <dc:format>image/svg+xml</dc:format>
    <dc:creator>
     <cc:Agent>
      <dc:title>Matplotlib v3.3.3, https://matplotlib.org/</dc:title>
     </cc:Agent>
    </dc:creator>
   </cc:Work>
  </rdf:RDF>
 </metadata>
 <defs>
  <style type="text/css">*{stroke-linecap:butt;stroke-linejoin:round;}</style>
 </defs>
 <g id="figure_1">
  <g id="patch_1">
   <path d="M 0 363.5 
L 226.166667 363.5 
L 226.166667 0 
L 0 0 
z
" style="fill:none;"/>
  </g>
  <g id="axes_1">
   <g id="patch_2">
    <path d="M 3.5 360 
L 39.5 360 
L 39.5 0 
L 3.5 0 
z
" style="fill:#cccccc;"/>
   </g>
   <g id="matplotlib.axis_1"/>
   <g id="matplotlib.axis_2"/>
   <g id="patch_3">
    <path d="M 3.5 360 
L 3.5 0 
" style="fill:none;stroke:#000000;stroke-linecap:square;stroke-linejoin:miter;stroke-width:0.8;"/>
   </g>
   <g id="patch_4">
    <path d="M 39.5 360 
L 39.5 0 
" style="fill:none;stroke:#000000;stroke-linecap:square;stroke-linejoin:miter;stroke-width:0.8;"/>
   </g>
   <g id="patch_5">
    <path d="M 3.5 360 
L 39.5 360 
" style="fill:none;stroke:#000000;stroke-linecap:square;stroke-linejoin:miter;stroke-width:0.8;"/>
   </g>
   <g id="patch_6">
    <path d="M 3.5 0 
L 39.5 0 
" style="fill:none;stroke:#000000;stroke-linecap:square;stroke-linejoin:miter;stroke-width:0.8;"/>
   </g>
   <g id="text_1">
    <!-- Sinogram FDE -->
    <g transform="translate(31.116171 282.092373)rotate(-90)scale(0.34 -0.34)">
     <defs>
      <path d="M 44.703125 68 
L 42.59375 68 
C 42.203125 65.703125 41.09375 64.609375 39.40625 64.609375 
C 38.40625 64.609375 36.703125 65 35 65.8125 
C 31.296875 67.203125 27.59375 68 24.40625 68 
C 20.09375 68 15.703125 66.3125 12.40625 63.40625 
C 8.90625 60.296875 7.09375 56.09375 7.09375 50.875 
C 7.09375 42.859375 11.5 37.265625 22.703125 31.34375 
C 29.90625 27.546875 35.09375 23.421875 37.59375 19.625 
C 38.5 18.328125 39 16.21875 39 13.8125 
C 39 7.09375 34 2.5 26.703125 2.5 
C 17.796875 2.5 11.5 8.015625 6.5 20.25 
L 4.203125 20.25 
L 7.203125 -1 
L 9.40625 -1 
C 9.5 0.890625 10.703125 2.296875 12.203125 2.296875 
C 13.296875 2.296875 15 1.90625 16.90625 1.234375 
C 20.703125 -0.21875 24.703125 -1 28.703125 -1 
C 40.203125 -1 49.09375 6.90625 49.09375 17.203125 
C 49.09375 25.40625 43.59375 31.90625 30.40625 39 
C 19.90625 44.8125 15.703125 49.203125 15.703125 54.609375 
C 15.703125 60.109375 19.90625 63.90625 26.09375 63.90625 
C 30.59375 63.90625 34.796875 62 38.296875 58.40625 
C 41.40625 55.203125 42.796875 52.609375 44.40625 46.703125 
L 46.90625 46.703125 
z
" id="Nimbus_Roman_No9_L_Regular-83"/>
      <path d="M 17.5 45.765625 
L 2 40.296875 
L 2 38.8125 
L 2.796875 38.90625 
C 4 39.09375 5.296875 39.203125 6.203125 39.203125 
C 8.59375 39.203125 9.5 37.59375 9.5 33.203125 
L 9.5 10 
C 9.5 2.796875 8.5 1.703125 1.59375 1.703125 
L 1.59375 0 
L 25.296875 0 
L 25.296875 1.5 
C 18.703125 2 17.90625 2.984375 17.90625 10.15625 
L 17.90625 45.46875 
z
M 12.796875 68 
C 10.09375 68 7.796875 65.703125 7.796875 62.90625 
C 7.796875 60.109375 10 57.796875 12.796875 57.796875 
C 15.703125 57.796875 18 60 18 62.90625 
C 18 65.703125 15.703125 68 12.796875 68 
z
" id="Nimbus_Roman_No9_L_Regular-105"/>
      <path d="M 1.59375 40.296875 
C 2.203125 40.59375 3.203125 40.703125 4.296875 40.703125 
C 7.09375 40.703125 8 39.203125 8 34.296875 
L 8 9.5 
C 8 3.796875 6.90625 2.40625 1.796875 2 
L 1.796875 0.5 
L 23 0.5 
L 23 2 
C 17.90625 2.40625 16.40625 3.59375 16.40625 7.203125 
L 16.40625 35.296875 
C 21.203125 39.796875 23.40625 41 26.703125 41 
C 31.59375 41 34 37.90625 34 31.296875 
L 34 10.40625 
C 34 4.09375 32.703125 2.40625 27.703125 2 
L 27.703125 0.5 
L 48.5 0.5 
L 48.5 2 
C 43.59375 2.5 42.40625 3.703125 42.40625 8.59375 
L 42.40625 31.5 
C 42.40625 40.90625 38 46.5 30.59375 46.5 
C 26 46.5 22.90625 44.796875 16.09375 38.40625 
L 16.09375 46.296875 
L 15.40625 46.5 
C 10.5 44.703125 7.09375 43.59375 1.59375 42 
z
" id="Nimbus_Roman_No9_L_Regular-110"/>
      <path d="M 25 46 
C 12 46 2.90625 36.40625 2.90625 22.59375 
C 2.90625 9.09375 12.203125 -1 24.796875 -1 
C 37.40625 -1 47 9.59375 47 23.40625 
C 47 36.5 37.796875 46 25 46 
z
M 23.703125 43.203125 
C 32.09375 43.203125 38 33.59375 38 19.90625 
C 38 8.59375 33.5 1.796875 26 1.796875 
C 22.09375 1.796875 18.40625 4.203125 16.296875 8.203125 
C 13.5 13.40625 11.90625 20.40625 11.90625 27.5 
C 11.90625 37 16.59375 43.203125 23.703125 43.203125 
z
" id="Nimbus_Roman_No9_L_Regular-111"/>
      <path d="M 47 39 
L 47 42.90625 
L 39.296875 42.90625 
C 37.296875 42.90625 35.796875 43.171875 33.796875 43.78125 
L 31.59375 44.484375 
C 28.90625 45.359375 26.203125 45.796875 23.59375 45.796875 
C 14.296875 45.796875 6.90625 38.546875 6.90625 29.390625 
C 6.90625 23.0625 9.59375 19.21875 16.203125 15.90625 
C 14.296875 14.15625 12.5 12.484375 11.90625 12 
C 8.59375 9.1875 7.296875 7.234375 7.296875 5.28125 
C 7.296875 3.21875 8.5 2.046875 12.59375 0.09375 
C 5.5 -5.140625 2.796875 -8.484375 2.796875 -12.203125 
C 2.796875 -17.5625 10.59375 -22 20.09375 -22 
C 27.59375 -22 35.40625 -19.34375 40.59375 -15.03125 
C 44.40625 -11.859375 46.09375 -8.5625 46.09375 -4.671875 
C 46.09375 1.6875 41.40625 6 34 6 
L 21.09375 6 
C 15.796875 6 13.296875 6.921875 13.296875 8.5625 
C 13.296875 10.59375 16.59375 14.1875 19.296875 15 
C 20.203125 14.890625 20.90625 14.796875 21.203125 14.796875 
C 23.09375 14.59375 24.40625 14.5 25 14.5 
C 28.703125 14.5 32.703125 16.03125 35.796875 18.796875 
C 39.09375 21.671875 40.59375 25.265625 40.59375 30.390625 
C 40.59375 33.359375 40.09375 35.71875 38.703125 39 
z
M 14.703125 -0.203125 
C 18 -0.90625 26 -1.5 30.90625 -1.5 
C 40 -1.5 43.296875 -2.8125 43.296875 -6.46875 
C 43.296875 -12.359375 35.703125 -16.296875 24.40625 -16.296875 
C 15.59375 -16.296875 9.796875 -13.359375 9.796875 -8.90625 
C 9.796875 -6.5625 10.5 -5.25 14.703125 -0.203125 
z
M 15.203125 33.515625 
C 15.203125 39.46875 18 43 22.59375 43 
C 25.703125 43 28.296875 41.28125 29.90625 38.265625 
C 31.703125 34.734375 32.90625 30.109375 32.90625 26.171875 
C 32.90625 20.53125 30 17 25.40625 17 
C 19.40625 17 15.203125 23.546875 15.203125 33.21875 
z
" id="Nimbus_Roman_No9_L_Regular-103"/>
      <path d="M 0.703125 39 
C 2.09375 39.296875 3 39.40625 4.203125 39.40625 
C 6.703125 39.40625 7.59375 37.796875 7.59375 33.40625 
L 7.59375 8.40625 
C 7.59375 3.40625 6.90625 2.703125 0.5 1.5 
L 0.5 0 
L 24.5 0 
L 24.5 1.59375 
C 17.703125 1.59375 16 3.109375 16 8.828125 
L 16 31.453125 
C 16 34.671875 20.296875 39.703125 23 39.703125 
C 23.59375 39.703125 24.5 39.203125 25.59375 38.203125 
C 27.203125 36.796875 28.296875 36.203125 29.59375 36.203125 
C 32 36.203125 33.5 37.90625 33.5 40.703125 
C 33.5 44 31.40625 46 28 46 
C 23.796875 46 20.90625 43.703125 16 36.609375 
L 16 45.796875 
L 15.5 46 
C 10.203125 43.796875 6.59375 42.515625 0.703125 40.609375 
z
" id="Nimbus_Roman_No9_L_Regular-114"/>
      <path d="M 44.203125 6.609375 
C 42.5 5.203125 41.296875 4.703125 39.796875 4.703125 
C 37.5 4.703125 36.796875 6.09375 36.796875 10.5 
L 36.796875 30 
C 36.796875 35.203125 36.296875 38.09375 34.796875 40.5 
C 32.59375 44.09375 28.296875 46 22.40625 46 
C 13 46 5.59375 41.09375 5.59375 34.796875 
C 5.59375 32.5 7.59375 30.5 9.90625 30.5 
C 12.296875 30.5 14.40625 32.5 14.40625 34.703125 
C 14.40625 35.09375 14.296875 35.59375 14.203125 36.296875 
C 14 37.203125 13.90625 38 13.90625 38.703125 
C 13.90625 41.40625 17.09375 43.59375 21.09375 43.59375 
C 26 43.59375 28.703125 40.703125 28.703125 35.296875 
L 28.703125 29.203125 
C 13.296875 23 11.59375 22.203125 7.296875 18.40625 
C 5.09375 16.40625 3.703125 13 3.703125 9.703125 
C 3.703125 3.40625 8.09375 -1 14.203125 -1 
C 18.59375 -1 22.703125 1.09375 28.796875 6.296875 
C 29.296875 1.09375 31.09375 -1 35.203125 -1 
C 38.59375 -1 40.703125 0.203125 44.203125 4 
z
M 28.703125 12.234375 
C 28.703125 9.125 28.203125 8.21875 26.09375 7.015625 
C 23.703125 5.609375 20.90625 4.703125 18.796875 4.703125 
C 15.296875 4.703125 12.5 8.125 12.5 12.4375 
L 12.5 12.84375 
C 12.5 18.765625 16.59375 22.390625 28.703125 26.796875 
z
" id="Nimbus_Roman_No9_L_Regular-97"/>
      <path d="M 1.90625 39.796875 
C 3.203125 40.09375 4 40.203125 5.09375 40.203125 
C 7.703125 40.203125 8.59375 38.59375 8.59375 33.78125 
L 8.59375 8.421875 
C 8.59375 3 7.203125 1.5 1.59375 1.5 
L 1.59375 0 
L 23.796875 0 
L 23.796875 1.5 
C 18.5 1.5 17 2.59375 17 6.53125 
L 17 34.90625 
C 17 35.09375 17.796875 36.09375 18.5 36.796875 
C 21 39.09375 25.296875 40.796875 28.796875 40.796875 
C 33.203125 40.796875 35.40625 37.265625 35.40625 30.1875 
L 35.40625 8.25 
C 35.40625 2.609375 34.296875 1.5 28.59375 1.5 
L 28.59375 0 
L 51 0 
L 51 1.5 
C 45.296875 1.5 43.796875 3.203125 43.796875 9.421875 
L 43.796875 34.703125 
C 46.796875 39 50.09375 40.796875 54.703125 40.796875 
C 60.40625 40.796875 62.203125 38.09375 62.203125 29.796875 
L 62.203125 8.703125 
C 62.203125 3 61.40625 2.203125 55.59375 1.5 
L 55.59375 0 
L 77.5 0 
L 77.5 1.5 
L 74.90625 1.796875 
C 71.90625 1.796875 70.59375 3.59375 70.59375 7.5 
L 70.59375 28.15625 
C 70.59375 39.984375 66.703125 46 59 46 
C 53.203125 46 48.09375 43.40625 42.703125 37.609375 
C 40.90625 43.296875 37.5 46 32.09375 46 
C 27.703125 46 24.90625 44.59375 16.59375 38.296875 
L 16.59375 45.796875 
L 15.90625 46 
C 10.796875 44.09375 7.40625 43 1.90625 41.5 
z
" id="Nimbus_Roman_No9_L_Regular-109"/>
      <path d="M 47.90625 23 
L 47.90625 46.203125 
L 45.59375 46.203125 
C 44.40625 38.453125 42.59375 37 34.59375 37 
L 20.09375 37 
L 20.09375 58.84375 
C 20.09375 61.609375 20.59375 62.203125 23.296875 62.203125 
L 36.90625 62.203125 
C 48.203125 62.203125 50.40625 60.71875 52.09375 51.78125 
L 54.59375 51.78125 
L 54.296875 66 
L 1.203125 66 
L 1.203125 64.09375 
C 8.59375 63.5 9.90625 62.09375 9.90625 55.078125 
L 9.90625 11.703125 
C 9.90625 3.390625 8.796875 2.09375 1.203125 2.09375 
L 1.203125 0 
L 29.203125 0 
L 29.203125 2.09375 
C 21.5 2.09375 20.09375 3.515625 20.09375 10.8125 
L 20.09375 32.90625 
L 34.59375 32.90625 
C 42.703125 32.90625 44.40625 31.359375 45.59375 23 
z
" id="Nimbus_Roman_No9_L_Regular-70"/>
      <path d="M 10.40625 10.609375 
C 10.40625 3.390625 9.203125 2.09375 1.59375 2.09375 
L 1.59375 0 
L 30 0 
C 41.59375 0 52.09375 3.28125 58.296875 8.875 
C 64.796875 14.75 68.5 23.625 68.5 33.296875 
C 68.5 42.28125 65.5 50.046875 60 55.53125 
C 53.203125 62.40625 42.296875 66 28.59375 66 
L 1.59375 66 
L 1.59375 64.09375 
C 9.5 63.390625 10.40625 62.5 10.40625 55.078125 
z
M 20.59375 58.40625 
C 20.59375 61.5 21.703125 62.296875 25.796875 62.296875 
C 34.40625 62.296875 40.90625 60.703125 45.703125 57.3125 
C 53.5 51.921875 57.59375 43.359375 57.59375 32.609375 
C 57.59375 20.84375 53.5 12.46875 45.40625 7.78125 
C 40.296875 4.90625 34.5 3.703125 25.796875 3.703125 
C 21.796875 3.703125 20.59375 4.59375 20.59375 7.78125 
z
" id="Nimbus_Roman_No9_L_Regular-68"/>
      <path d="M 59.703125 16.84375 
L 56.90625 16.84375 
C 51.90625 6.078125 47.59375 3.703125 33.296875 3.703125 
L 30.59375 3.703125 
C 25.703125 3.703125 21.5 4.203125 20.796875 4.921875 
C 20.296875 5.21875 20.09375 6.3125 20.09375 8.03125 
L 20.09375 32.90625 
L 35.5 32.90625 
C 43.703125 32.90625 45.203125 31.5625 46.5 23 
L 48.796875 23 
L 48.796875 46.203125 
L 46.5 46.203125 
C 45.796875 42.234375 45.40625 40.78125 44.296875 39.421875 
C 43 37.765625 40.203125 37 35.5 37 
L 20.09375 37 
L 20.09375 58.84375 
C 20.09375 61.609375 20.703125 62.203125 23.40625 62.203125 
L 36.90625 62.203125 
C 48.203125 62.203125 50.40625 60.71875 52.09375 51.78125 
L 54.59375 51.78125 
L 54.296875 66 
L 1.203125 66 
L 1.203125 64.09375 
C 8.59375 63.5 9.90625 62.09375 9.90625 55.078125 
L 9.90625 10.609375 
C 9.90625 3.59375 8.5 2.09375 1.203125 2.09375 
L 1.203125 0 
L 55.203125 0 
z
" id="Nimbus_Roman_No9_L_Regular-69"/>
     </defs>
     <use transform="scale(0.996264)" xlink:href="#Nimbus_Roman_No9_L_Regular-83"/>
     <use transform="translate(55.391677 0)scale(0.996264)" xlink:href="#Nimbus_Roman_No9_L_Regular-105"/>
     <use transform="translate(83.086847 0)scale(0.996264)" xlink:href="#Nimbus_Roman_No9_L_Regular-110"/>
     <use transform="translate(132.900047 0)scale(0.996264)" xlink:href="#Nimbus_Roman_No9_L_Regular-111"/>
     <use transform="translate(182.713248 0)scale(0.996264)" xlink:href="#Nimbus_Roman_No9_L_Regular-103"/>
     <use transform="translate(232.526448 0)scale(0.996264)" xlink:href="#Nimbus_Roman_No9_L_Regular-114"/>
     <use transform="translate(265.701678 0)scale(0.996264)" xlink:href="#Nimbus_Roman_No9_L_Regular-97"/>
     <use transform="translate(309.935246 0)scale(0.996264)" xlink:href="#Nimbus_Roman_No9_L_Regular-109"/>
     <use transform="translate(412.350217 0)scale(0.996264)" xlink:href="#Nimbus_Roman_No9_L_Regular-70"/>
     <use transform="translate(467.741894 0)scale(0.996264)" xlink:href="#Nimbus_Roman_No9_L_Regular-68"/>
     <use transform="translate(539.671879 0)scale(0.996264)" xlink:href="#Nimbus_Roman_No9_L_Regular-69"/>
    </g>
   </g>
  </g>
  <g id="axes_2">
   <g id="patch_7">
    <path d="M 39.5 360 
L 226.166667 360 
L 226.166667 0 
L 39.5 0 
z
" style="fill:#ffffff;"/>
   </g>
   <g id="PathCollection_1">
    <defs>
     <path d="M 0 5.244044 
C 1.390737 5.244044 2.7247 4.691499 3.708099 3.708099 
C 4.691499 2.7247 5.244044 1.390737 5.244044 -0 
C 5.244044 -1.390737 4.691499 -2.7247 3.708099 -3.708099 
C 2.7247 -4.691499 1.390737 -5.244044 0 -5.244044 
C -1.390737 -5.244044 -2.7247 -4.691499 -3.708099 -3.708099 
C -4.691499 -2.7247 -5.244044 -1.390737 -5.244044 0 
C -5.244044 1.390737 -4.691499 2.7247 -3.708099 3.708099 
C -2.7247 4.691499 -1.390737 5.244044 0 5.244044 
z
" id="C0_0_55d31a312f"/>
    </defs>
    <g clip-path="url(#p20edd341e6)">
     <use style="fill:#f6e620;stroke:#000000;" x="47.984848" xlink:href="#C0_0_55d31a312f" y="180"/>
    </g>
    <g clip-path="url(#p20edd341e6)">
     <use style="fill:#f6e620;stroke:#000000;" x="47.984848" xlink:href="#C0_0_55d31a312f" y="180"/>
    </g>
    <g clip-path="url(#p20edd341e6)">
     <use style="fill:#f6e620;stroke:#000000;" x="47.984848" xlink:href="#C0_0_55d31a312f" y="180"/>
    </g>
    <g clip-path="url(#p20edd341e6)">
     <use style="fill:#f6e620;stroke:#000000;" x="47.984848" xlink:href="#C0_0_55d31a312f" y="180"/>
    </g>
    <g clip-path="url(#p20edd341e6)">
     <use style="fill:#f8e621;stroke:#000000;" x="47.984848" xlink:href="#C0_0_55d31a312f" y="180"/>
    </g>
    <g clip-path="url(#p20edd341e6)">
     <use style="fill:#f6e620;stroke:#000000;" x="47.984848" xlink:href="#C0_0_55d31a312f" y="180"/>
    </g>
    <g clip-path="url(#p20edd341e6)">
     <use style="fill:#f8e621;stroke:#000000;" x="47.984848" xlink:href="#C0_0_55d31a312f" y="180"/>
    </g>
    <g clip-path="url(#p20edd341e6)">
     <use style="fill:#fde725;stroke:#000000;" x="59.745747" xlink:href="#C0_0_55d31a312f" y="174.33625"/>
    </g>
    <g clip-path="url(#p20edd341e6)">
     <use style="fill:#e7e419;stroke:#000000;" x="56.123643" xlink:href="#C0_0_55d31a312f" y="169.794274"/>
    </g>
    <g clip-path="url(#p20edd341e6)">
     <use style="fill:#c0df25;stroke:#000000;" x="56.123643" xlink:href="#C0_0_55d31a312f" y="190.205726"/>
    </g>
    <g clip-path="url(#p20edd341e6)">
     <use style="fill:#bddf26;stroke:#000000;" x="50.889551" xlink:href="#C0_0_55d31a312f" y="192.726332"/>
    </g>
    <g clip-path="url(#p20edd341e6)">
     <use style="fill:#d2e21b;stroke:#000000;" x="50.889551" xlink:href="#C0_0_55d31a312f" y="167.273668"/>
    </g>
    <g clip-path="url(#p20edd341e6)">
     <use style="fill:#dfe318;stroke:#000000;" x="59.745747" xlink:href="#C0_0_55d31a312f" y="185.66375"/>
    </g>
    <g clip-path="url(#p20edd341e6)">
     <use style="fill:#fde725;stroke:#000000;" x="61.038462" xlink:href="#C0_0_55d31a312f" y="180"/>
    </g>
    <g clip-path="url(#p20edd341e6)">
     <use style="fill:#27808e;stroke:#000000;" x="71.506646" xlink:href="#C0_0_55d31a312f" y="191.327501"/>
    </g>
    <g clip-path="url(#p20edd341e6)">
     <use style="fill:#89d548;stroke:#000000;" x="71.506646" xlink:href="#C0_0_55d31a312f" y="168.672499"/>
    </g>
    <g clip-path="url(#p20edd341e6)">
     <use style="fill:#1fa287;stroke:#000000;" x="64.262438" xlink:href="#C0_0_55d31a312f" y="200.411451"/>
    </g>
    <g clip-path="url(#p20edd341e6)">
     <use style="fill:#84d44b;stroke:#000000;" x="74.092075" xlink:href="#C0_0_55d31a312f" y="180"/>
    </g>
    <g clip-path="url(#p20edd341e6)">
     <use style="fill:#a0da39;stroke:#000000;" x="53.794253" xlink:href="#C0_0_55d31a312f" y="154.547337"/>
    </g>
    <g clip-path="url(#p20edd341e6)">
     <use style="fill:#58c765;stroke:#000000;" x="64.262438" xlink:href="#C0_0_55d31a312f" y="159.588549"/>
    </g>
    <g clip-path="url(#p20edd341e6)">
     <use style="fill:#50c46a;stroke:#000000;" x="53.794253" xlink:href="#C0_0_55d31a312f" y="205.452663"/>
    </g>
    <g clip-path="url(#p20edd341e6)">
     <use style="fill:#d0e11c;stroke:#000000;" x="83.267545" xlink:href="#C0_0_55d31a312f" y="163.008749"/>
    </g>
    <g clip-path="url(#p20edd341e6)">
     <use style="fill:#50c46a;stroke:#000000;" x="87.145688" xlink:href="#C0_0_55d31a312f" y="180"/>
    </g>
    <g clip-path="url(#p20edd341e6)">
     <use style="fill:#287d8e;stroke:#000000;" x="56.698955" xlink:href="#C0_0_55d31a312f" y="141.821005"/>
    </g>
    <g clip-path="url(#p20edd341e6)">
     <use style="fill:#69cd5b;stroke:#000000;" x="83.267545" xlink:href="#C0_0_55d31a312f" y="196.991251"/>
    </g>
    <g clip-path="url(#p20edd341e6)">
     <use style="fill:#46c06f;stroke:#000000;" x="72.401232" xlink:href="#C0_0_55d31a312f" y="149.382823"/>
    </g>
    <g clip-path="url(#p20edd341e6)">
     <use style="fill:#48c16e;stroke:#000000;" x="72.401232" xlink:href="#C0_0_55d31a312f" y="210.617177"/>
    </g>
    <g clip-path="url(#p20edd341e6)">
     <use style="fill:#5ec962;stroke:#000000;" x="56.698955" xlink:href="#C0_0_55d31a312f" y="218.178995"/>
    </g>
    <g clip-path="url(#p20edd341e6)">
     <use style="fill:#3bbb75;stroke:#000000;" x="80.540027" xlink:href="#C0_0_55d31a312f" y="139.177097"/>
    </g>
    <g clip-path="url(#p20edd341e6)">
     <use style="fill:#48c16e;stroke:#000000;" x="59.603657" xlink:href="#C0_0_55d31a312f" y="230.905327"/>
    </g>
    <g clip-path="url(#p20edd341e6)">
     <use style="fill:#b0dd2f;stroke:#000000;" x="95.028444" xlink:href="#C0_0_55d31a312f" y="157.344998"/>
    </g>
    <g clip-path="url(#p20edd341e6)">
     <use style="fill:#277f8e;stroke:#000000;" x="100.199301" xlink:href="#C0_0_55d31a312f" y="180"/>
    </g>
    <g clip-path="url(#p20edd341e6)">
     <use style="fill:#20928c;stroke:#000000;" x="95.028444" xlink:href="#C0_0_55d31a312f" y="202.655002"/>
    </g>
    <g clip-path="url(#p20edd341e6)">
     <use style="fill:#20928c;stroke:#000000;" x="80.540027" xlink:href="#C0_0_55d31a312f" y="220.822903"/>
    </g>
    <g clip-path="url(#p20edd341e6)">
     <use style="fill:#50c46a;stroke:#000000;" x="59.603657" xlink:href="#C0_0_55d31a312f" y="129.094673"/>
    </g>
    <g clip-path="url(#p20edd341e6)">
     <use style="fill:#50c46a;stroke:#000000;" x="88.678822" xlink:href="#C0_0_55d31a312f" y="128.971372"/>
    </g>
    <g clip-path="url(#p20edd341e6)">
     <use style="fill:#2eb37c;stroke:#000000;" x="88.678822" xlink:href="#C0_0_55d31a312f" y="231.028628"/>
    </g>
    <g clip-path="url(#p20edd341e6)">
     <use style="fill:#20a486;stroke:#000000;" x="113.252914" xlink:href="#C0_0_55d31a312f" y="180"/>
    </g>
    <g clip-path="url(#p20edd341e6)">
     <use style="fill:#22a884;stroke:#000000;" x="106.789343" xlink:href="#C0_0_55d31a312f" y="208.318752"/>
    </g>
    <g clip-path="url(#p20edd341e6)">
     <use style="fill:#6ece58;stroke:#000000;" x="106.789343" xlink:href="#C0_0_55d31a312f" y="151.681248"/>
    </g>
    <g clip-path="url(#p20edd341e6)">
     <use style="fill:#21918c;stroke:#000000;" x="62.508359" xlink:href="#C0_0_55d31a312f" y="243.631659"/>
    </g>
    <g clip-path="url(#p20edd341e6)">
     <use style="fill:#6ccd5a;stroke:#000000;" x="62.508359" xlink:href="#C0_0_55d31a312f" y="116.368341"/>
    </g>
    <g clip-path="url(#p20edd341e6)">
     <use style="fill:#365c8d;stroke:#000000;" x="118.550242" xlink:href="#C0_0_55d31a312f" y="213.982503"/>
    </g>
    <g clip-path="url(#p20edd341e6)">
     <use style="fill:#21a585;stroke:#000000;" x="65.413061" xlink:href="#C0_0_55d31a312f" y="256.35799"/>
    </g>
    <g clip-path="url(#p20edd341e6)">
     <use style="fill:#34618d;stroke:#000000;" x="96.817616" xlink:href="#C0_0_55d31a312f" y="241.234354"/>
    </g>
    <g clip-path="url(#p20edd341e6)">
     <use style="fill:#1f9f88;stroke:#000000;" x="126.306527" xlink:href="#C0_0_55d31a312f" y="180"/>
    </g>
    <g clip-path="url(#p20edd341e6)">
     <use style="fill:#46c06f;stroke:#000000;" x="65.413061" xlink:href="#C0_0_55d31a312f" y="103.64201"/>
    </g>
    <g clip-path="url(#p20edd341e6)">
     <use style="fill:#86d549;stroke:#000000;" x="118.550242" xlink:href="#C0_0_55d31a312f" y="146.017497"/>
    </g>
    <g clip-path="url(#p20edd341e6)">
     <use style="fill:#40bd72;stroke:#000000;" x="96.817616" xlink:href="#C0_0_55d31a312f" y="118.765646"/>
    </g>
    <g clip-path="url(#p20edd341e6)">
     <use style="fill:#1f988b;stroke:#000000;" x="139.36014" xlink:href="#C0_0_55d31a312f" y="180"/>
    </g>
    <g clip-path="url(#p20edd341e6)">
     <use style="fill:#22a884;stroke:#000000;" x="104.956411" xlink:href="#C0_0_55d31a312f" y="108.55992"/>
    </g>
    <g clip-path="url(#p20edd341e6)">
     <use style="fill:#1e9c89;stroke:#000000;" x="130.311141" xlink:href="#C0_0_55d31a312f" y="219.646253"/>
    </g>
    <g clip-path="url(#p20edd341e6)">
     <use style="fill:#218f8d;stroke:#000000;" x="68.317764" xlink:href="#C0_0_55d31a312f" y="269.084322"/>
    </g>
    <g clip-path="url(#p20edd341e6)">
     <use style="fill:#24878e;stroke:#000000;" x="104.956411" xlink:href="#C0_0_55d31a312f" y="251.44008"/>
    </g>
    <g clip-path="url(#p20edd341e6)">
     <use style="fill:#5cc863;stroke:#000000;" x="130.311141" xlink:href="#C0_0_55d31a312f" y="140.353747"/>
    </g>
    <g clip-path="url(#p20edd341e6)">
     <use style="fill:#1f998a;stroke:#000000;" x="68.317764" xlink:href="#C0_0_55d31a312f" y="90.915678"/>
    </g>
    <g clip-path="url(#p20edd341e6)">
     <use style="fill:#25848e;stroke:#000000;" x="142.07204" xlink:href="#C0_0_55d31a312f" y="225.310004"/>
    </g>
    <g clip-path="url(#p20edd341e6)">
     <use style="fill:#24878e;stroke:#000000;" x="113.095205" xlink:href="#C0_0_55d31a312f" y="98.354195"/>
    </g>
    <g clip-path="url(#p20edd341e6)">
     <use style="fill:#472a7a;stroke:#000000;" x="71.222466" xlink:href="#C0_0_55d31a312f" y="281.810654"/>
    </g>
    <g clip-path="url(#p20edd341e6)">
     <use style="fill:#31b57b;stroke:#000000;" x="142.07204" xlink:href="#C0_0_55d31a312f" y="134.689996"/>
    </g>
    <g clip-path="url(#p20edd341e6)">
     <use style="fill:#440154;stroke:#000000;" x="113.095205" xlink:href="#C0_0_55d31a312f" y="261.645805"/>
    </g>
    <g clip-path="url(#p20edd341e6)">
     <use style="fill:#365d8d;stroke:#000000;" x="152.413753" xlink:href="#C0_0_55d31a312f" y="180"/>
    </g>
    <g clip-path="url(#p20edd341e6)">
     <use style="fill:#1f948c;stroke:#000000;" x="71.222466" xlink:href="#C0_0_55d31a312f" y="78.189346"/>
    </g>
    <g clip-path="url(#p20edd341e6)">
     <use style="fill:#297b8e;stroke:#000000;" x="74.127168" xlink:href="#C0_0_55d31a312f" y="294.536985"/>
    </g>
    <g clip-path="url(#p20edd341e6)">
     <use style="fill:#1f978b;stroke:#000000;" x="74.127168" xlink:href="#C0_0_55d31a312f" y="65.463015"/>
    </g>
    <g clip-path="url(#p20edd341e6)">
     <use style="fill:#2e6e8e;stroke:#000000;" x="165.467366" xlink:href="#C0_0_55d31a312f" y="180"/>
    </g>
    <g clip-path="url(#p20edd341e6)">
     <use style="fill:#38588c;stroke:#000000;" x="153.832939" xlink:href="#C0_0_55d31a312f" y="230.973754"/>
    </g>
    <g clip-path="url(#p20edd341e6)">
     <use style="fill:#3f4889;stroke:#000000;" x="121.234" xlink:href="#C0_0_55d31a312f" y="271.851531"/>
    </g>
    <g clip-path="url(#p20edd341e6)">
     <use style="fill:#2c718e;stroke:#000000;" x="121.234" xlink:href="#C0_0_55d31a312f" y="88.148469"/>
    </g>
    <g clip-path="url(#p20edd341e6)">
     <use style="fill:#34b679;stroke:#000000;" x="153.832939" xlink:href="#C0_0_55d31a312f" y="129.026246"/>
    </g>
    <g clip-path="url(#p20edd341e6)">
     <use style="fill:#414487;stroke:#000000;" x="129.372795" xlink:href="#C0_0_55d31a312f" y="282.057256"/>
    </g>
    <g clip-path="url(#p20edd341e6)">
     <use style="fill:#287d8e;stroke:#000000;" x="129.372795" xlink:href="#C0_0_55d31a312f" y="77.942744"/>
    </g>
    <g clip-path="url(#p20edd341e6)">
     <use style="fill:#39558c;stroke:#000000;" x="165.593838" xlink:href="#C0_0_55d31a312f" y="236.637504"/>
    </g>
    <g clip-path="url(#p20edd341e6)">
     <use style="fill:#228c8d;stroke:#000000;" x="77.03187" xlink:href="#C0_0_55d31a312f" y="52.736683"/>
    </g>
    <g clip-path="url(#p20edd341e6)">
     <use style="fill:#1f9f88;stroke:#000000;" x="165.593838" xlink:href="#C0_0_55d31a312f" y="123.362496"/>
    </g>
    <g clip-path="url(#p20edd341e6)">
     <use style="fill:#404588;stroke:#000000;" x="77.03187" xlink:href="#C0_0_55d31a312f" y="307.263317"/>
    </g>
    <g clip-path="url(#p20edd341e6)">
     <use style="fill:#424186;stroke:#000000;" x="178.520979" xlink:href="#C0_0_55d31a312f" y="180"/>
    </g>
    <g clip-path="url(#p20edd341e6)">
     <use style="fill:#3e4989;stroke:#000000;" x="177.354737" xlink:href="#C0_0_55d31a312f" y="242.301255"/>
    </g>
    <g clip-path="url(#p20edd341e6)">
     <use style="fill:#26818e;stroke:#000000;" x="191.574592" xlink:href="#C0_0_55d31a312f" y="180"/>
    </g>
    <g clip-path="url(#p20edd341e6)">
     <use style="fill:#404588;stroke:#000000;" x="79.936572" xlink:href="#C0_0_55d31a312f" y="319.989649"/>
    </g>
    <g clip-path="url(#p20edd341e6)">
     <use style="fill:#287c8e;stroke:#000000;" x="177.354737" xlink:href="#C0_0_55d31a312f" y="117.698745"/>
    </g>
    <g clip-path="url(#p20edd341e6)">
     <use style="fill:#3e4989;stroke:#000000;" x="137.511589" xlink:href="#C0_0_55d31a312f" y="292.262982"/>
    </g>
    <g clip-path="url(#p20edd341e6)">
     <use style="fill:#38588c;stroke:#000000;" x="137.511589" xlink:href="#C0_0_55d31a312f" y="67.737018"/>
    </g>
    <g clip-path="url(#p20edd341e6)">
     <use style="fill:#423f85;stroke:#000000;" x="79.936572" xlink:href="#C0_0_55d31a312f" y="40.010351"/>
    </g>
    <g clip-path="url(#p20edd341e6)">
     <use style="fill:#25848e;stroke:#000000;" x="189.115636" xlink:href="#C0_0_55d31a312f" y="112.034995"/>
    </g>
    <g clip-path="url(#p20edd341e6)">
     <use style="fill:#306a8e;stroke:#000000;" x="145.650384" xlink:href="#C0_0_55d31a312f" y="302.468708"/>
    </g>
    <g clip-path="url(#p20edd341e6)">
     <use style="fill:#414287;stroke:#000000;" x="189.115636" xlink:href="#C0_0_55d31a312f" y="247.965005"/>
    </g>
    <g clip-path="url(#p20edd341e6)">
     <use style="fill:#404588;stroke:#000000;" x="145.650384" xlink:href="#C0_0_55d31a312f" y="57.531292"/>
    </g>
    <g clip-path="url(#p20edd341e6)">
     <use style="fill:#3b518b;stroke:#000000;" x="204.628205" xlink:href="#C0_0_55d31a312f" y="180"/>
    </g>
    <g clip-path="url(#p20edd341e6)">
     <use style="fill:#3e4a89;stroke:#000000;" x="82.841275" xlink:href="#C0_0_55d31a312f" y="332.715981"/>
    </g>
    <g clip-path="url(#p20edd341e6)">
     <use style="fill:#39568c;stroke:#000000;" x="82.841275" xlink:href="#C0_0_55d31a312f" y="27.284019"/>
    </g>
    <g clip-path="url(#p20edd341e6)">
     <use style="fill:#472c7a;stroke:#000000;" x="153.789178" xlink:href="#C0_0_55d31a312f" y="312.674433"/>
    </g>
    <g clip-path="url(#p20edd341e6)">
     <use style="fill:#375a8c;stroke:#000000;" x="85.745977" xlink:href="#C0_0_55d31a312f" y="14.557688"/>
    </g>
    <g clip-path="url(#p20edd341e6)">
     <use style="fill:#297b8e;stroke:#000000;" x="200.876535" xlink:href="#C0_0_55d31a312f" y="106.371244"/>
    </g>
    <g clip-path="url(#p20edd341e6)">
     <use style="fill:#39568c;stroke:#000000;" x="200.876535" xlink:href="#C0_0_55d31a312f" y="253.628756"/>
    </g>
    <g clip-path="url(#p20edd341e6)">
     <use style="fill:#482071;stroke:#000000;" x="153.789178" xlink:href="#C0_0_55d31a312f" y="47.325567"/>
    </g>
    <g clip-path="url(#p20edd341e6)">
     <use style="fill:#414487;stroke:#000000;" x="217.681818" xlink:href="#C0_0_55d31a312f" y="180"/>
    </g>
    <g clip-path="url(#p20edd341e6)">
     <use style="fill:#460a5d;stroke:#000000;" x="85.745977" xlink:href="#C0_0_55d31a312f" y="345.442312"/>
    </g>
   </g>
   <g id="matplotlib.axis_3"/>
   <g id="matplotlib.axis_4"/>
   <g id="patch_8">
    <path d="M 39.5 360 
L 39.5 0 
" style="fill:none;stroke:#000000;stroke-linecap:square;stroke-linejoin:miter;stroke-width:0.8;"/>
   </g>
   <g id="patch_9">
    <path d="M 226.166667 360 
L 226.166667 0 
" style="fill:none;stroke:#000000;stroke-linecap:square;stroke-linejoin:miter;stroke-width:0.8;"/>
   </g>
   <g id="patch_10">
    <path d="M 39.5 360 
L 226.166667 360 
" style="fill:none;stroke:#000000;stroke-linecap:square;stroke-linejoin:miter;stroke-width:0.8;"/>
   </g>
   <g id="patch_11">
    <path d="M 39.5 0 
L 226.166667 0 
" style="fill:none;stroke:#000000;stroke-linecap:square;stroke-linejoin:miter;stroke-width:0.8;"/>
   </g>
  </g>
 </g>
 <defs>
  <clipPath id="p20edd341e6">
   <rect height="360" width="186.666667" x="39.5" y="0"/>
  </clipPath>
 </defs>
</svg>
